<?xml version="1.0" encoding="UTF-8" standalone="no"?>
<svg xmlns="http://www.w3.org/2000/svg" viewBox="0 0 512 512" width="512" height="512">
  <!-- Outer circle for guidance -->
  <circle cx="256" cy="256" r="240" fill="white" opacity="0" />
  
  <!-- Mood sections -->
  <!-- Angry (Red) -->
  <path d="M256 256 L136 76 A240 240 0 0 1 256 16 Z" fill="#FF0000" />
  
  <!-- Sad (Orange) -->
  <path d="M256 256 L256 16 A240 240 0 0 1 436 76 Z" fill="#FFA500" />
  
  <!-- Neutral (Yellow) -->
  <path d="M256 256 L436 76 A240 240 0 0 1 496 256 Z" fill="#FFFF00" />
  
  <!-- Content (Light Green) -->
  <path d="M256 256 L496 256 A240 240 0 0 1 436 436 Z" fill="#90EE90" />
  
  <!-- Happy (Dark Green) -->
  <path d="M256 256 L436 436 A240 240 0 0 1 256 496 Z" fill="#008000" />
  
  <!-- Center dot and needle -->
  <circle cx="256" cy="256" r="15" fill="#000000" />
  <path d="M256 256 L360 430" stroke="#000000" stroke-width="8" />
  
  <!-- Face icons -->
  <!-- Angry face -->
  <circle cx="170" cy="120" r="25" fill="white" stroke="#000" stroke-width="2" />
  <path d="M160 125 L180 125" stroke="#000" stroke-width="2" />
  <path d="M155 115 L165 110" stroke="#000" stroke-width="2" />
  <path d="M175 115 L185 110" stroke="#000" stroke-width="2" />
  
  <!-- Neutral face -->
  <circle cx="410" cy="170" r="25" fill="white" stroke="#000" stroke-width="2" />
  <path d="M400 175 L420 175" stroke="#000" stroke-width="2" />
  <circle cx="405" cy="160" r="2" fill="#000" />
  <circle cx="415" cy="160" r="2" fill="#000" />
  
  <!-- Happy face -->
  <circle cx="330" cy="410" r="25" fill="white" stroke="#000" stroke-width="2" />
  <path d="M320 410 C325 420, 335 420, 340 410" stroke="#000" stroke-width="2" fill="none" />
  <circle cx="325" cy="400" r="2" fill="#000" />
  <circle cx="335" cy="400" r="2" fill="#000" />
</svg> 